{
  "asset": {
    "generator": "Khronos glTF Blender I/O v1.6.16",
    "version": "2.0"
  },
  "scene": 0,
  "scenes": [
    {
      "name": "Scene",
      "nodes": [
        0
      ]
    }
  ],
  "nodes": [
    {
      "mesh": 0,
      "name": "sphere_gltf"
    }
  ],
  "materials": [
    {
      "doubleSided": true,
      "name": "rough_plasterbrick_05",
      "normalTexture": {
        "index": 0
      },
      "pbrMetallicRoughness": {
        "baseColorTexture": {
          "index": 1
        },
        "metallicFactor": 0,
        "metallicRoughnessTexture": {
          "index": 2
        }
      }
    }
  ],
  "meshes": [
    {
      "name": "Sphere.001",
      "primitives": [
        {
          "attributes": {
            "POSITION": 0,
            "NORMAL": 1,
            "TEXCOORD_0": 2
          },
          "indices": 3,
          "material": 0
        }
      ]
    }
  ],
  "textures": [
    {
      "sampler": 0,
      "source": 0
    },
    {
      "sampler": 0,
      "source": 1
    },
    {
      "sampler": 0,
      "source": 2
    }
  ],
  "images": [
    {
      "mimeType": "image/jpeg",
      "name": "rough_plasterbrick_05_nor_gl_4k",
      "uri": "textures/rough_plasterbrick_05_nor_gl_4k.jpg"
    },
    {
      "mimeType": "image/jpeg",
      "name": "rough_plasterbrick_05_diff_4k",
      "uri": "textures/rough_plasterbrick_05_diff_4k.jpg"
    },
    {
      "mimeType": "image/jpeg",
      "name": "rough_plasterbrick_05_rough_4k",
      "uri": "textures/rough_plasterbrick_05_rough_4k.jpg"
    }
  ],
  "accessors": [
    {
      "bufferView": 0,
      "componentType": 5126,
      "count": 53887,
      "max": [
        0.7503580451011658,
        0.7492016553878784,
        0.7503867149353027
      ],
      "min": [
        -0.7503647804260254,
        -0.7485443353652954,
        -0.7503917217254639
      ],
      "type": "VEC3"
    },
    {
      "bufferView": 1,
      "componentType": 5126,
      "count": 53887,
      "type": "VEC3"
    },
    {
      "bufferView": 2,
      "componentType": 5126,
      "count": 53887,
      "type": "VEC2"
    },
    {
      "bufferView": 3,
      "componentType": 5123,
      "count": 322170,
      "type": "SCALAR"
    }
  ],
  "bufferViews": [
    {
      "buffer": 0,
      "byteLength": 646644,
      "byteOffset": 0
    },
    {
      "buffer": 0,
      "byteLength": 646644,
      "byteOffset": 646644
    },
    {
      "buffer": 0,
      "byteLength": 431096,
      "byteOffset": 1293288
    },
    {
      "buffer": 0,
      "byteLength": 644340,
      "byteOffset": 1724384
    }
  ],
  "samplers": [
    {
      "magFilter": 9729,
      "minFilter": 9987
    }
  ],
  "buffers": [
    {
      "byteLength": 2368724,
      "uri": "rough_plasterbrick_05.bin"
    }
  ]
}